<?xml version="1.0" encoding="utf-8"?>
<!-- Generator: Adobe Illustrator 19.2.1, SVG Export Plug-In . SVG Version: 6.00 Build 0)  -->
<svg version="1.1" id="Слой_1" xmlns="http://www.w3.org/2000/svg" xmlns:xlink="http://www.w3.org/1999/xlink" x="0px" y="0px"
	 viewBox="0 0 223.7 81.1" style="enable-background:new 0 0 223.7 81.1;" xml:space="preserve">
<style type="text/css">
	.st0{fill:#4E4A48;}
	.st1{fill:#126DB4;}
	.st2{opacity:0.3;fill-rule:evenodd;clip-rule:evenodd;fill:#FFFFFF;}
	.st3{fill:url(#SVGID_1_);}
	.st4{fill:url(#SVGID_2_);}
	.st5{fill:url(#SVGID_3_);}
	.st6{fill:url(#SVGID_4_);}
</style>
<g>
	<g>
		<path class="st0" d="M37.9,25.9l12.3,30.2H44l-2.8-7.3H24.7l-2.8,7.3h-6.2l12.3-30.2H37.9z M26.2,45.5h13.4l-6.5-16h-0.4
			L26.2,45.5z"/>
		<path class="st0" d="M53.6,56.1V25.9h6v7.8H65c2,0,3.8,0.3,5.4,0.8c1.6,0.5,3,1.3,4.2,2.2c1.2,1,2,2.2,2.7,3.5
			c0.6,1.4,0.9,2.9,0.9,4.7c0,1.7-0.3,3.3-0.9,4.7c-0.6,1.4-1.5,2.6-2.7,3.5c-1.1,1-2.5,1.7-4.2,2.2c-1.6,0.5-3.4,0.8-5.4,0.8H53.6z
			 M65,53.1c1,0,1.9-0.2,2.7-0.5c0.8-0.3,1.5-0.8,2.1-1.4c0.6-0.7,1-1.5,1.4-2.5c0.3-1,0.5-2.3,0.5-3.8c0-1.5-0.2-2.7-0.5-3.8
			c-0.3-1-0.8-1.9-1.4-2.5c-0.6-0.7-1.3-1.1-2.1-1.4c-0.8-0.3-1.7-0.5-2.7-0.5h-5.4v16.4H65z"/>
		<path class="st1" d="M89.6,28.3c0,0.9-0.3,1.6-0.9,2.3c-0.6,0.6-1.4,1-2.4,1c-1,0-1.8-0.3-2.4-1c-0.6-0.6-0.9-1.4-0.9-2.3
			s0.3-1.6,0.9-2.3c0.6-0.6,1.4-1,2.4-1c0.9,0,1.7,0.3,2.3,1C89.3,26.6,89.6,27.4,89.6,28.3z M89.4,56.1h-6v-22h6V56.1z"/>
		<path class="st0" d="M97.6,36.7h-4.1v-3h4.1v-6.9h6v6.9h6.7v3h-6.7v11.2c0,1.1,0.1,2,0.4,2.8c0.2,0.8,0.6,1.4,1,1.9
			c0.4,0.5,0.9,0.8,1.4,1.1c0.5,0.2,1.1,0.3,1.7,0.3c0.9,0,1.7-0.1,2.5-0.4c0.8-0.3,1.5-0.6,2-0.9l1.3,2.8c-0.9,0.4-1.8,0.8-3,1.1
			c-1.1,0.3-2.2,0.4-3.3,0.4c-3.3,0-5.8-0.8-7.5-2.4c-1.8-1.6-2.6-3.8-2.6-6.6V36.7z"/>
		<path class="st0" d="M116.2,33.6h6v13.6c0,2.1,0.5,3.6,1.6,4.5c1,0.9,2.5,1.4,4.5,1.4h5.6V33.6h6v22.4h-11.6
			c-4.1,0-7.2-0.7-9.1-2.2c-2-1.5-3-3.7-3-6.6V33.6z"/>
	</g>
	<path id="Блик_2_" class="st2" d="M0,67.8c0,0,64-34.9,148.2-31.4c1.1,1.5-94.2,1.7-141.6,36.4C-0.6,93.5,0,67.8,0,67.8z"/>
	<g>
		<g>
			<path class="st0" d="M222.6,20.6c-5-8.8-24.8-7-44.3,4c-19.5,11-31.3,27-26.4,35.8c5,8.8,24.8,7,44.3-4
				C215.7,45.5,227.5,29.4,222.6,20.6z M194.5,53.4c-18.1,10.2-36.4,12.2-40.8,4.5c-4.4-7.7,6.8-22.3,25-32.5
				c18.2-10.2,36.4-12.3,40.8-4.5C223.8,28.6,212.6,43.2,194.5,53.4z"/>
		</g>
	</g>
	<g>
		<g>
			<path class="st0" d="M187.2,0C177.1,0,169,18.2,169,40.6c0,22.4,8.2,40.6,18.3,40.6s18.3-18.2,18.3-40.6
				C205.5,18.2,197.3,0,187.2,0z M188.5,78.3c-8.9,0-16.1-16.9-16.1-37.7c0-20.8,7.2-37.7,16.1-37.7c8.9,0,16.1,16.9,16.1,37.7
				C204.6,61.4,197.4,78.3,188.5,78.3z"/>
		</g>
	</g>
	<g>
		<g>
			<path class="st0" d="M196.4,24.8c-19.4-11.2-39.2-13.2-44.3-4.5c-5,8.7,6.6,24.9,26,36.1c19.4,11.2,39.2,13.2,44.3,4.5
				C227.4,52.1,215.8,36,196.4,24.8z M220.5,58.3c-4.4,7.7-22.7,5.5-40.7-4.9c-18-10.4-29.1-25.1-24.6-32.8
				c4.4-7.7,22.7-5.5,40.7,4.9C214,35.9,225,50.6,220.5,58.3z"/>
		</g>
	</g>
	<g>
		<path class="st1" d="M184.5,35.2v8.7h-2.4l-4.7-7.1h-0.1v7.1h-1.8v-8.7h2.4l4.7,7.1h0.1v-7.1H184.5z"/>
		<path class="st1" d="M188.1,36.2V39h4.5v0.9h-4.5v3h5.8v0.9h-7.6v-8.7h7.6v0.9H188.1z"/>
		<path class="st1" d="M202.9,36.2h-3.4v7.8h-1.8v-7.8h-3.4v-0.9h8.5V36.2z"/>
	</g>
	
		<radialGradient id="SVGID_1_" cx="92.0263" cy="-16338.584" r="4.3829" gradientTransform="matrix(0.9559 0 0 -0.9559 -2.2526 -15588.5215)" gradientUnits="userSpaceOnUse">
		<stop  offset="0.2556" style="stop-color:#008DCC"/>
		<stop  offset="0.275" style="stop-color:#008BC8"/>
		<stop  offset="0.4711" style="stop-color:#0075A9"/>
		<stop  offset="0.6612" style="stop-color:#006592"/>
		<stop  offset="0.8411" style="stop-color:#005B85"/>
		<stop  offset="1" style="stop-color:#005880"/>
	</radialGradient>
	<circle class="st3" cx="86.3" cy="28.2" r="3.4"/>
	
		<radialGradient id="SVGID_2_" cx="206.7755" cy="-16327.7432" r="3.8371" gradientTransform="matrix(0.9559 0 0 -0.9559 -2.2526 -15588.5215)" gradientUnits="userSpaceOnUse">
		<stop  offset="0.2556" style="stop-color:#008DCC"/>
		<stop  offset="0.275" style="stop-color:#008BC8"/>
		<stop  offset="0.4711" style="stop-color:#0075A9"/>
		<stop  offset="0.6612" style="stop-color:#006592"/>
		<stop  offset="0.8411" style="stop-color:#005B85"/>
		<stop  offset="1" style="stop-color:#005880"/>
	</radialGradient>
	<circle class="st4" cx="195.9" cy="18" r="3"/>
	
		<radialGradient id="SVGID_3_" cx="230.4897" cy="-16355.3994" r="3.0311" gradientTransform="matrix(0.9559 0 0 -0.9559 -2.2526 -15588.5215)" gradientUnits="userSpaceOnUse">
		<stop  offset="0.2556" style="stop-color:#008DCC"/>
		<stop  offset="0.275" style="stop-color:#008BC8"/>
		<stop  offset="0.4711" style="stop-color:#0075A9"/>
		<stop  offset="0.6612" style="stop-color:#006592"/>
		<stop  offset="0.8411" style="stop-color:#005B85"/>
		<stop  offset="1" style="stop-color:#005880"/>
	</radialGradient>
	<path class="st5" d="M220.9,44.6c0,1.3-1.1,2.4-2.4,2.4c-1.3,0-2.4-1.1-2.4-2.4c0-1.3,1.1-2.4,2.4-2.4
		C219.8,42.2,220.9,43.3,220.9,44.6z"/>
	
		<radialGradient id="SVGID_4_" cx="163.9596" cy="-16373.7744" r="5.5332" gradientTransform="matrix(0.9559 0 0 -0.9559 -2.2526 -15588.5215)" gradientUnits="userSpaceOnUse">
		<stop  offset="0.2556" style="stop-color:#008DCC"/>
		<stop  offset="0.275" style="stop-color:#008BC8"/>
		<stop  offset="0.4711" style="stop-color:#0075A9"/>
		<stop  offset="0.6612" style="stop-color:#006592"/>
		<stop  offset="0.8411" style="stop-color:#005B85"/>
		<stop  offset="1" style="stop-color:#005880"/>
	</radialGradient>
	<ellipse class="st6" cx="155.2" cy="61.6" rx="4.3" ry="4.3"/>
</g>
</svg>
