<?xml version="1.0" encoding="utf-8"?>
<!-- Generator: Adobe Illustrator 19.2.1, SVG Export Plug-In . SVG Version: 6.00 Build 0)  -->
<svg version="1.1" id="Слой_1" xmlns="http://www.w3.org/2000/svg" xmlns:xlink="http://www.w3.org/1999/xlink" x="0px" y="0px"
	 viewBox="0 0 203.5 61.1" style="enable-background:new 0 0 203.5 61.1;" xml:space="preserve">
<style type="text/css">
	.st0{fill:#0369B2;}
</style>
<g>
	<g>
		<path class="st0" d="M49.7,18.1h14.7l0.5,14.2H65l6.1-14.2h14.7L80.5,44h-8.9l4.1-20.4h-0.2L66.3,44h-8.3l-0.8-20.4H57L52.9,44
			h-8.4L49.7,18.1z"/>
		<path class="st0" d="M94.6,44.5l0.8-4.1h-1.8c-6.8,0-9.3-3.8-9.3-7.7c0-5.7,4.6-12.4,13.6-12.4h1.6l0.8-3.9h9.9l-0.8,3.9h1.6
			c3.6,0,9.5,0.9,9.5,7.7c0,6-4.3,12.3-13.2,12.3h-2l-0.8,4.1H94.6z M98.8,26.2h-0.6c-2.6,0-4.4,2.8-4.4,5.2c0,1.5,0.9,3,2.7,3h0.6
			L98.8,26.2z M106.2,34.4h0.6c2.8,0,4.3-3,4.3-5.3c0-1.7-1-2.9-2.7-2.9h-0.6L106.2,34.4z"/>
		<path class="st0" d="M150.1,18.1l-1.6,7.7h-8.7L136.1,44h-9.9l3.7-18.2h-8.7l1.6-7.7H150.1z"/>
		<path class="st0" d="M162.2,18.1l-3,14.8h0.1l9.6-14.8h11.6L175.2,44h-9.9l3-14.5h-0.1L158.6,44H147l5.3-25.9H162.2z"/>
	</g>
	<polygon class="st0" points="188.2,53.8 189.6,46.4 203.5,50.6 	"/>
	<path class="st0" d="M184.9,48.1H41.5c-2.6,0-3.8,2.9-4.9,5.8c-0.4,1-1,2.5-1.5,3.2c-0.8-0.8-1.5-4.9-1.7-6.5l-0.1-0.9
		c-0.9-5.5-1.6-11.2-2.4-16.8C27.7,8.6,26.1,0.1,21.6,0c-5.7-0.1-7.7,9.9-13.7,39.8l-0.8,3.9c-0.9,4.4-2.9,4.4-3.8,4.4H0.7L0,52h3.4
		c2.3,0,6.2-1,7.5-7.5l0.8-3.9c3.7-18.4,7.2-35.7,9.6-36.6c2.1,2.3,4.2,18,5.8,29.5c0.7,5.6,1.5,11.4,2.4,16.9l0.1,0.9
		c0.7,4.4,1.5,9.9,5.6,9.9c2.6,0,3.8-2.9,4.9-5.8c0.4-1.1,1.1-2.8,1.6-3.3h142.5L184.9,48.1z"/>
</g>
</svg>
