<?xml version="1.0" encoding="utf-8"?>
<!-- Generator: Adobe Illustrator 19.2.1, SVG Export Plug-In . SVG Version: 6.00 Build 0)  -->
<svg version="1.1" id="Слой_1" xmlns="http://www.w3.org/2000/svg" xmlns:xlink="http://www.w3.org/1999/xlink" x="0px" y="0px"
	 viewBox="0 0 99.2 99.2" style="enable-background:new 0 0 99.2 99.2;" xml:space="preserve">
<style type="text/css">
	.st0{fill-rule:evenodd;clip-rule:evenodd;fill:#0369B2;}
</style>
<g>
	<g>
		<path class="st0" d="M43,37.5l-0.5,2.2c1.1-0.2,2.2-0.8,2.3-1.4C44.9,37.7,44.1,37.4,43,37.5z"/>
		<path class="st0" d="M40.2,38.8c-0.4,0.6,0.7,1,1.7,0.9l0.5-2.1C41.3,37.9,40.6,38.2,40.2,38.8z"/>
		<path class="st0" d="M49.6,8.2L8.2,49.6L49.6,91l41.4-41.4L49.6,8.2z M45.1,32.2l6-2.9l-2.6,5.2h-1.7l1.1-1.7L45,34.5l-2.5-1.7
			l0.8,1.7h-1.6l-1.8-5.2L45.1,32.2z M46.4,68.8l3.2-15.9c0.4-1.3,0.4-2.6-1.1-2l-4.2,1.9l-3.9,16.3l-6.8,0.7L40,41h-4
			c2.4-3,13.5-10.2,11.1-0.6l-2.2,9.7l9.7-3.9c1.1-0.2,3.5-0.2,3.1,2.3l-3.5,16.2c5-0.6,10.1-6.3,10.9-10.1
			c1.1-7.3-4.4-12.5-4.4-12.5l3-7.6c0,0,8.4,5.5,7.8,16.3C70.7,63,56.6,65.9,46.4,68.8z"/>
	</g>
	<g>
		<g>
			<polygon class="st0" points="57.9,4.1 56.8,3.1 51.7,8.2 55.8,12.4 61,7.2 59.9,6.2 64,2.1 62,0 			"/>
			<polygon class="st0" points="92,38.2 86.8,43.4 90.9,47.5 96.1,42.4 95.1,41.3 99.2,37.2 97.1,35.2 93,39.3 			"/>
			<polygon class="st0" points="84.9,31.2 79.8,36.4 83.9,40.5 89.1,35.3 88.1,34.3 92.2,30.2 90.1,28.1 86,32.2 			"/>
			<polygon class="st0" points="77.9,24.2 72.7,29.3 76.9,33.5 82.1,28.3 81,27.3 85.1,23.2 83.1,21.1 79,25.2 			"/>
			<polygon class="st0" points="63.9,10.1 58.7,15.3 62.8,19.4 68,14.2 67,13.2 71.1,9.1 69,7 64.9,11.1 			"/>
			<polygon class="st0" points="70.9,17.1 65.7,22.3 69.9,26.4 75,21.3 74,20.2 78.1,16.1 76,14.1 71.9,18.2 			"/>
		</g>
		<g>
			<polygon class="st0" points="39.2,93 35.2,97.1 37.2,99.2 41.3,95.1 42.3,96.1 47.5,91 43.4,86.8 38.2,92 			"/>
			<polygon class="st0" points="3.1,56.8 4.1,57.9 0,62 2.1,64 6.2,59.9 7.2,61 12.4,55.8 8.2,51.7 			"/>
			<polygon class="st0" points="11.1,64.9 7,69 9.1,71.1 13.2,67 14.2,68 19.4,62.8 15.3,58.7 10.1,63.9 			"/>
			<polygon class="st0" points="18.2,71.9 14.1,76 16.1,78.1 20.2,74 21.3,75 26.4,69.9 22.3,65.7 17.1,70.9 			"/>
			<polygon class="st0" points="32.2,86 28.1,90.1 30.2,92.2 34.3,88.1 35.3,89.1 40.5,83.9 36.4,79.8 31.2,85 			"/>
			<polygon class="st0" points="25.2,79 21.1,83.1 23.2,85.1 27.3,81 28.3,82.1 33.5,76.9 29.3,72.8 24.2,77.9 			"/>
		</g>
	</g>
	<g>
		<polygon class="st0" points="90.9,51.7 86.8,55.8 92,61 93,59.9 97.1,64.1 99.2,62 95.1,57.9 96.1,56.8 		"/>
		<polygon class="st0" points="56.8,96.1 57.9,95.1 62,99.2 64,97.1 59.9,93 61,92 55.8,86.8 51.7,91 		"/>
		<polygon class="st0" points="63.9,89.1 64.9,88.1 69,92.2 71.1,90.1 67,86 68,85 62.8,79.8 58.7,83.9 		"/>
		<polygon class="st0" points="70.9,82.1 71.9,81 76,85.2 78.1,83.1 74,79 75,77.9 69.9,72.8 65.7,76.9 		"/>
		<polygon class="st0" points="84.9,68 86,67 90.1,71.1 92.2,69 88.1,64.9 89.1,63.9 83.9,58.7 79.8,62.8 		"/>
		<polygon class="st0" points="77.9,75 79,74 83.1,78.1 85.1,76.1 81,71.9 82.1,70.9 76.9,65.7 72.7,69.9 		"/>
	</g>
	<g>
		<polygon class="st0" points="2.1,35.2 0,37.3 4.1,41.3 3.1,42.4 8.2,47.5 12.4,43.4 7.2,38.2 6.2,39.3 		"/>
		<polygon class="st0" points="41.3,4.1 37.3,0.1 35.2,2.1 39.2,6.2 38.2,7.2 43.4,12.4 47.5,8.2 42.3,3.1 		"/>
		<polygon class="st0" points="30.2,7.1 28.2,9.2 32.2,13.2 31.2,14.2 36.4,19.4 40.5,15.3 35.3,10.1 34.3,11.1 		"/>
		<polygon class="st0" points="23.2,14.1 21.1,16.2 25.2,20.2 24.2,21.3 29.3,26.4 33.5,22.3 28.3,17.1 27.3,18.2 		"/>
		<polygon class="st0" points="9.1,28.2 7.1,30.2 11.1,34.3 10.1,35.3 15.3,40.5 19.4,36.4 14.2,31.2 13.2,32.2 		"/>
		<polygon class="st0" points="16.2,21.1 14.1,23.2 18.2,27.3 17.1,28.3 22.3,33.5 26.4,29.3 21.3,24.2 20.2,25.2 		"/>
	</g>
</g>
</svg>
